# xmcd
#
# Track frame offsets:
#	150
#	14844
#	28921
#	43204
#	56676
#	71586
#	83547
#	98506
#	112086
#	126396
#	140943
#	154293
#
# Disc length: 2235 seconds
#
# Revision: 0
# Processed by: cddbd v1.5.2PL0 Copyright (c) Steve Scherf et al.
# Submitted via: EasyCDDAExtractor 11.0.0.1
#
DISCID=b308b90c
DTITLE=ΚΑΖΑΝΤΖΙΔΗΣ ΣΤΕΛΙΟΣ - ΓΥΡΙΣΜΟΣ
DYEAR=1970
DGENRE=ΛΑΪΚΑ
TTITLE0=Καζαντζίδης Στέλιος_01 Την Παρασκευή το βράδυ
TTITLE1=Καζαντζίδης Στέλιος_02 Ο Μπάρμπα Γιάννης
TTITLE2=Καζαντζίδης Στέλιος_03 Ποιός είδε γλάρο στα βουνά
TTITLE3=Καζαντζίδης Στέλιος_04 Ανάθεμα την τύχη μου
TTITLE4=Καζαντζίδης Στέλιος_05 Η καρδιά μου ας όψεται
TTITLE5=Καζαντζίδης Στέλιος_06 Μαυρομάνικο μαχαίρι
TTITLE6=Καζαντζίδης Στέλιος_07 Θα ξανατραγουδήσω
TTITLE7=Καζαντζίδης Στέλιος_08 Λασπωμένα όνειρα
TTITLE8=Καζαντζίδης Στέλιος_09 Το δρομολόγιο της ζωής
TTITLE9=Καζαντζίδης Στέλιος_10 Πάψε να ρωτάς
TTITLE10=Καζαντζίδης Στέλιος_11 Πάνω στου τοίχου το καρφί
TTITLE11=Καζαντζίδης Στέλιος_12 Γυρίζω απ' τη νύχτα
EXTD=
EXTT0=
EXTT1=
EXTT2=
EXTT3=
EXTT4=
EXTT5=
EXTT6=
EXTT7=
EXTT8=
EXTT9=
EXTT10=
EXTT11=
PLAYORDER=
